# xmcd
#
# Track frame offsets: 
#        150
#        19058
#        34335
#        52540
#        70143
#        87833
#        103940
#        126988
#        159913
#        167223
#
# Disc length: 2720 seconds
#
# Revision: 0
# Processed by: cddbd v1.5.2PL0 Copyright (c) Steve Scherf et al.
# Submitted via: ExactAudioCopy v0.99pb4
#
DISCID=7a0a9e0a
DTITLE=Roy Buchanan - The Messiah Will Come Again
DYEAR=1900
DGENRE=Blues
TTITLE0=The Messiah Will Come Again
TTITLE1=Caruso
TTITLE2=My Friend Jeff
TTITLE3=If Six Was Nine
TTITLE4=Guitar Cadenza
TTITLE5=Sweet Dreams
TTITLE6=John's Blues
TTITLE7=Pete's Blue
TTITLE8=Cajun
TTITLE9=Roy's Bluz (Live)
EXTD=
EXTT0=
EXTT1=
EXTT2=
EXTT3=
EXTT4=
EXTT5=
EXTT6=
EXTT7=
EXTT8=
EXTT9=
PLAYORDER=
